<?xml version="1.0" encoding="UTF-8"?>
<!DOCTYPE svg PUBLIC "-//W3C//DTD SVG 1.1//EN" "http://www.w3.org/Graphics/SVG/1.1/DTD/svg11.dtd">
<!-- Creator: CorelDRAW 2020 (64-Bit) -->
<svg xmlns="http://www.w3.org/2000/svg" xml:space="preserve" width="16.8331mm" height="16.8331mm" version="1.1" style="shape-rendering:geometricPrecision; text-rendering:geometricPrecision; image-rendering:optimizeQuality; fill-rule:evenodd; clip-rule:evenodd"
viewBox="0 0 131.86 131.86"
 xmlns:xlink="http://www.w3.org/1999/xlink"
 xmlns:xodm="http://www.corel.com/coreldraw/odm/2003">
 <defs>
  <style type="text/css">
   <![CDATA[
    .fil0 {fill:white;fill-rule:nonzero}
   ]]>
  </style>
 </defs>
 <g id="Capa_x0020_1">
  <metadata id="CorelCorpID_0Corel-Layer"/>
  <path class="fil0" d="M70.72 57.49c1.01,-1.14 1.85,-2.3 2.9,-3.28 3.21,-3.02 7,-4.55 11.43,-4.51 2.43,0.02 4.84,0.2 7.19,0.88 5.37,1.55 8.48,5.24 9.97,10.49 1.11,3.93 1.32,7.97 1.33,12.02 0.02,8.54 -0.02,17.08 -0.01,25.63 0,0.8 -0.22,1.01 -1.01,1 -4.4,-0.04 -8.8,-0.04 -13.2,0 -0.78,0.01 -0.94,-0.24 -0.94,-0.96 0.03,-8.13 0.03,-16.26 0,-24.38 -0.01,-2.04 -0.14,-4.07 -0.71,-6.05 -1.05,-3.65 -3.66,-5.51 -7.49,-5.31 -5.22,0.28 -7.93,2.86 -8.6,8.17 -0.16,1.27 -0.23,2.54 -0.23,3.81 0.01,7.9 -0.01,15.81 0.02,23.71 0,0.79 -0.2,1.02 -1,1.01 -4.43,-0.04 -8.87,-0.04 -13.3,-0 -0.71,0 -0.91,-0.19 -0.91,-0.91 0.02,-15.65 0.02,-31.3 0,-46.95 -0,-0.78 0.25,-0.95 0.98,-0.95 4.21,0.03 8.42,0.04 12.63,0 0.77,-0.01 0.97,0.24 0.96,0.98 -0.04,1.87 -0.01,3.74 -0.01,5.61z"/>
  <path class="fil0" d="M46.61 75.38c0,7.74 -0.01,15.48 0.02,23.23 0,0.86 -0.21,1.12 -1.1,1.11 -4.4,-0.05 -8.8,-0.04 -13.2,-0.01 -0.71,0.01 -0.92,-0.17 -0.92,-0.9 0.02,-15.68 0.02,-31.35 0.01,-47.03 -0,-0.65 0.15,-0.88 0.85,-0.87 4.46,0.03 8.92,0.04 13.39,-0.01 0.86,-0.01 0.97,0.32 0.97,1.06 -0.02,7.81 -0.01,15.61 -0.01,23.42z"/>
  <path class="fil0" d="M47.82 35.37c0.01,4.86 -3.94,8.82 -8.79,8.82 -4.79,0 -8.77,-3.96 -8.78,-8.75 -0.02,-4.84 3.96,-8.82 8.8,-8.81 4.81,0 8.77,3.95 8.77,8.74z"/>
 </g>
</svg>
