<svg id="Capa_1" data-name="Capa 1" xmlns="http://www.w3.org/2000/svg" viewBox="0 0 51.2 40.66"><defs><style>.cls-1{fill:#ffffff;}</style></defs><title>NTV - WEB 2023</title><path class="cls-1" d="M42.29.83H8.91A7.88,7.88,0,0,0,1,8.7V28.2A11.65,11.65,0,0,0,12.67,39.83H38.53A11.64,11.64,0,0,0,50.15,28.2V8.7A7.87,7.87,0,0,0,42.29.83M41,6,28.16,20.73a3.4,3.4,0,0,1-5.12,0L10.22,6ZM38.53,34.62H12.67A6.43,6.43,0,0,1,6.25,28.2V9.41L19.12,24.15a8.59,8.59,0,0,0,13,0L45,9.41V28.2a6.43,6.43,0,0,1-6.42,6.42"/></svg>